<svg id="Capa_1" enable-background="new 0 0 413.742 413.742" height="512" viewBox="0 0 413.742 413.742" width="512" xmlns="http://www.w3.org/2000/svg"><g><path d="m365.295 329.538c-4.24-1.159-7.322-3.47-9.633-4.24s-20.8-1.929-20.8-1.929-1.229-17.782-1.229-24.55 6.15-23.678 5.838-32.292c-.276-7.789-.805-34.958 2.327-48.859l-27.954 8.823c-.361 13.461-.95 42.492.212 56.431 1.541 18.489 4.24 31.973 6.933 38.136 2.699 6.163 1.929 11.173 7.704 13.484 5.781 2.311 14.255 1.159 23.506 2.699 9.251 1.541 5.393 0 11.555 0 6.163 0 5.781-3.47 5.781-3.47s0-3.081-4.24-4.233z" fill="#f7be56"/><path d="m44.218 297.222-8.897 13.84-15.048-20.76 13.245-6.14z" fill="#f7be56"/><path d="m39.126 335.846c-4.547-4.782-3.674-18.17-.852-24.845.738-1.747.127-3.788-1.55-4.674-3.733-1.973-9.499-6.491-13.134-16.445-.743-2.034-3.132-2.928-5.075-1.972l-15.685 7.716s-4.999 2.389.09 14.401c5.088 12.012 13.122 14.014 18.06 23.171 4.939 9.157 19.522 20.527 25.499 19.003 5.977-1.525-1.817-10.532-7.353-16.355z" fill="#ebf0f3"/><path d="m46.472 352.197c-5.976 1.524-21.388-9.001-26.324-18.163-4.936-9.161-12.976-11.166-18.057-23.181-5.1-12.01.736-15.225.736-15.225l1.447-.718c-1.373 1.767-3 5.888.472 14.102 5.082 12.015 13.121 14.02 18.053 23.163 4.784 8.87 19.383 19.02 25.736 18.293-.221.813-.861 1.422-2.063 1.729z" fill="#4d5c7d"/><path d="m103.101 104.916-7.375-14.708 25.531-2.37v15.562z" fill="#f7be56"/><path d="m72.461 80.854c6.432-1.476 17.507 6.097 21.812 11.926 1.127 1.526 3.195 2.039 4.812 1.048 3.6-2.207 10.425-4.866 20.843-2.921 2.128.397 4.115-1.203 4.283-3.361l1.353-17.428s.199-5.6-12.73-7.343c-12.928-1.743-18.744 4.149-29.14 3.733s-27.317 6.42-29.051 12.339c-1.733 5.92 9.988 3.803 17.818 2.007z" fill="#ebf0f3"/><path d="m54.65 78.843c1.734-5.918 18.644-13.816 29.041-13.395s16.219-5.475 29.147-3.725c12.933 1.732 12.725 8.391 12.725 8.391l-.119 1.611c-.82-2.082-3.537-5.582-12.375-6.78-12.927-1.75-18.749 4.146-29.129 3.731-10.07-.403-26.242 6.986-28.854 12.823-.586-.604-.785-1.465-.436-2.656z" fill="#4d5c7d"/><path d="m412.315 180.849c-.428-1.59-1.166-2.95-1.421-4.6-.017-.113-.017-.219-.008-.321h-58.406c.185.688-.185 1.574-1.115 1.618-1.678.078-3.189-.338-4.628-.989-2.493.35-4.828.564-6.732.691-2.89.191-4.794.191-4.794.191-48.546-3.47-60.871 6.551-84.759 8.862-1.713.166-3.222.299-4.565.401-8.301.64-10.156.11-12.296-1.354v49.742c3.173.108 6.395.124 9.565.056 9.123-.197 17.789-1.063 23.48-2.235 13.096-2.693 41.606 0 41.606 0s-1.541 45.076 0 63.571c1.541 18.489 4.24 31.973 6.933 38.136 2.699 6.163 1.929 11.173 7.704 13.484 5.781 2.311 14.255 1.159 23.506 2.699 9.251 1.541 5.393 0 11.555 0 6.163 0 5.781-3.47 5.781-3.47s0-3.081-4.24-4.234c-4.24-1.159-7.322-3.47-9.633-4.24s-20.8-1.929-20.8-1.929-1.229-17.782-1.229-24.55 6.15-23.678 5.838-32.292c-.306-8.614-.611-30.14 3.693-44.286 4.304-14.147 5.291-23.614 5.291-23.614-.083-1.496 3.731-6.227 7.468-7.303 3.731-1.076 11.364 1.076 11.702 4.979.331 3.903-2.334 5.054 1.098 8.772 1.59 1.722 5.953.515 6.287-.89.121-.509 1.324-1.827 2.572-.662 1.241 1.159 3.234-.166 3.234-.166 1.49.579 2.241-.662 2.82-1.827.579-1.159 2.903-1.159 2.903-1.159s-.323 2.258 1.225 3.189c1.132.681 2.269.418 3.123-.014.788-.399 1.403-1.061 1.85-1.822 2.096-3.577 3.834-1.753 10.7-3.562 5.692-1.496 9.518-7.188 10.938-9.645.408-.7.618-1.14.618-1.14.231-.36.449-.718.66-1.076-.871-1.574-.209-4.134.373-5.95.679-2.115 1.502-4.074 1.835-6.279.345-2.277.879-4.509.268-6.782z" fill="#fcd462"/><g fill="#4d5c7d"><path d="m409.179 200.938s-.21.439-.618 1.14c-1.872-.618-5.787-1.719-13.975-3.572-15.102-3.419-13.109-8.55-13.389-10.257-.286-1.713-12.829-2.279-12.829-2.279-3.663 5.143-10.536 6.877-16.175 4.036-.889-.448-1.618-.859-2.059-1.19-2.279-1.706-5.132-2.846-5.985-5.125-.56-1.49-2.343-3.96-4.145-6.443 3.342-.223 7.997-.7 12.542-1.738 8.474-1.923-4.24-10.397 20.8-18.107 0 0 4.24-16.566 21.965-13.866 17.718 2.699 7.704 21.188 7.704 21.188s19.26 15.795 6.164 36.213z"/><path d="m342.744 204.78s3.239-21.426-13.845-24.723-31.316-.989-31.975 3.296-4.615 27.69 19.119 30.656c-5.319 5.264-8.296 11.421-7.801 18.901l-23.184-1.187-1.649-53.23c-.251-1.645 22.938-2.779 46.149-3.052 2.331-.026 16.857 4.363 13.186 29.339z"/><path d="m216.556 177.439c-24.658-7.322-35.831 4.24-48.928 8.862-13.103 4.622-47.005.382-47.005.382 7.356-21.054 3.402-74.568 2.226-88.386-.062-.728-.745-1.237-1.462-1.091l-20.64 4.211c-.558.114-.964.596-.977 1.165-.238 10.169-1.36 47.505-5.339 59.442-4.622 13.873-9.633 39.301-2.699 53.55 6.933 14.255 45.076 16.139 45.076 16.139l-22.347 18.151c-45.458 1.923-48.157 15.025-63.953 24.27-10.177 5.956-18.113 7.596-22.471 8.01-1.421.135-2.068 1.837-1.089 2.875l15.1 16.022c.568.603 1.529.588 2.072-.037 3.458-3.984 18.429-16.746 74.193-27.64 67.034-13.096 92.463-41.651 92.463-41.651 7.844 2.808 20.494 3.686 32.381 3.432l2.731-48.444c-17.426 1.344-6.444-2.463-29.332-9.262z"/></g><path d="m136.808 231.714 24.096-21.714-28.629 21.355z" fill="#474c5b"/></g></svg>